<svg width="60" height="20" viewBox="0 0 168 56" fill="none" xmlns="http://www.w3.org/2000/svg">
<path d="M109.834 1.45343C109.363 1.45364 108.896 1.5468 108.461 1.72758C108.025 1.90837 107.63 2.17322 107.297 2.50702C106.639 3.16551 106.244 4.09563 106.244 5.05044V48.4665C106.244 49.4213 106.622 50.335 107.297 51.0099C107.63 51.3437 108.026 51.6084 108.461 51.7891C108.897 51.9697 109.364 52.0627 109.835 52.0627C110.307 52.0627 110.774 51.9697 111.209 51.7891C111.645 51.6084 112.04 51.3437 112.373 51.0099C113.032 50.3514 113.427 49.4213 113.427 48.4665V5.0488C113.427 4.09398 113.048 3.18032 112.373 2.50537C112.04 2.17138 111.644 1.90641 111.209 1.72562C110.773 1.54483 110.306 1.45178 109.834 1.45178V1.45343ZM55.1322 16.7568C55.1322 14.7714 53.5245 13.1614 51.5449 13.1614C49.5652 13.1614 47.9575 14.7714 47.9575 16.7568V48.4632C47.9575 50.4485 49.5652 52.0586 51.5449 52.0586C53.5245 52.0586 55.1322 50.4485 55.1322 48.4632V16.7568Z" fill="#5A646E"/>
<path d="M56.1459 5.05535C56.1226 6.26154 55.6275 7.4105 54.7669 8.25562C53.9067 9.09978 52.7498 9.57268 51.5449 9.57268C50.3399 9.57268 49.183 9.09978 48.3228 8.25562C47.4623 7.4105 46.9672 6.26154 46.9438 5.05535C46.9433 3.83305 47.4281 2.66059 48.2916 1.79581C48.7182 1.3677 49.2251 1.02803 49.7833 0.796259C50.3414 0.564492 50.9397 0.44519 51.544 0.44519C52.1483 0.44519 52.7467 0.564492 53.3048 0.796259C53.8629 1.02803 54.3699 1.3677 54.7965 1.79581C55.66 2.66059 56.1448 3.83305 56.1442 5.05535H56.1459Z" fill="#FFFFFF"/>
<path d="M99.7568 24.6357C96.3077 16.8226 88.1473 11.3012 78.8366 12.256C75.6975 12.5879 72.678 13.6428 70.0147 15.3377C67.3504 17.0339 65.1144 19.3237 63.4818 22.028C61.8484 24.7339 60.8623 27.7808 60.6004 30.9308C60.3371 34.0817 60.8077 37.2524 61.9711 40.1892C63.1343 43.127 64.9608 45.7559 67.3077 47.8706C69.654 49.9836 72.4571 51.5252 75.4977 52.3747C78.538 53.2238 81.7335 53.3565 84.8336 52.7624C87.9338 52.1683 90.8541 50.8635 93.3654 48.9505C93.7878 48.6264 94.1325 48.2118 94.3741 47.7372C94.616 47.2631 94.7493 46.7396 94.7625 46.2062C94.7895 45.2603 94.4403 44.3424 93.7915 43.6538C93.1427 42.9652 92.2473 42.5623 91.3018 42.5335C90.4893 42.5074 89.6925 42.7608 89.0441 43.2512C86.5586 45.1714 83.4688 46.1395 80.3324 45.9807C77.7851 45.8506 75.3289 44.9906 73.2565 43.5031C71.175 42.0177 69.5601 39.9692 68.6011 37.5981C68.4704 37.2784 68.4624 36.9217 68.5787 36.5965C68.6951 36.2713 68.9276 36.0006 69.2314 35.8366C69.4328 35.7284 69.6578 35.6719 69.8863 35.672H94.8085C96.0093 35.677 97.1843 35.3244 98.1842 34.6593C99.184 33.9941 99.9635 33.0464 100.423 31.9367C100.73 31.2 100.888 30.4101 100.889 29.6122C100.839 27.8995 100.462 26.2122 99.7798 24.6406L99.7568 24.6357ZM80.9561 19.2821C83.6243 19.2828 86.2309 20.0845 88.4385 21.5835C90.6476 23.0843 92.3558 25.2136 93.3423 27.696C93.4256 27.9077 93.4567 28.1364 93.4328 28.3627C93.4081 28.5888 93.3286 28.8055 93.2013 28.994C93.074 29.1824 92.9027 29.337 92.7022 29.4443C92.5018 29.5518 92.278 29.6083 92.0506 29.6089H69.86C69.6325 29.6092 69.4085 29.5526 69.2084 29.4443C69.0076 29.3356 68.8365 29.1809 68.7081 28.9949C68.5798 28.8089 68.5008 28.5899 68.4777 28.3627C68.4539 28.1364 68.485 27.9077 68.5682 27.696C69.5548 25.2136 71.263 23.0843 73.472 21.5835C75.6833 20.092 78.2875 19.291 80.9545 19.2821H80.9561ZM139.247 45.9939C136.689 45.9944 134.185 45.2577 132.035 43.8719C129.882 42.4804 128.17 40.5048 127.098 38.1759C126.037 35.8441 125.669 33.2564 126.037 30.7211C126.404 28.1857 127.492 25.8094 129.171 23.8751L123.741 19.2377C121.983 21.2804 120.646 23.6509 119.808 26.2127C118.968 28.7747 118.641 31.4772 118.845 34.1657C119.049 36.854 119.783 39.4764 120.985 41.8816C122.203 44.2856 123.883 46.4254 125.93 48.1784C127.975 49.9309 130.346 51.2623 132.907 52.0964C135.467 52.9304 138.166 53.2493 140.85 53.0348C143.534 52.8205 146.15 52.0763 148.545 50.8453C150.941 49.6155 153.071 47.9243 154.813 45.8687L149.382 41.233C148.133 42.7247 146.571 43.9239 144.808 44.746C143.045 45.5686 141.124 45.994 139.18 45.9922L139.247 45.9939Z" fill="#5A646E"/>
<path d="M139.247 12.1342C136.311 12.1306 133.409 12.7623 130.739 13.9862C128.068 15.2103 125.693 16.9972 123.775 19.2245L129.189 23.8619C131.495 21.2033 134.759 19.565 138.268 19.3044C141.777 19.0438 145.246 20.182 147.919 22.4709C150.593 24.7636 152.255 28.019 152.543 31.5301C152.83 35.0417 151.719 38.5247 149.453 41.2214L154.867 45.8572C157.386 42.8731 159.002 39.2317 159.524 35.3608C160.045 31.489 159.45 27.5487 157.809 24.0035C156.169 20.4599 153.55 17.4595 150.261 15.3558C146.969 13.26 143.149 12.1428 139.247 12.1342V12.1342Z" fill="#FFFFFF"/>
<path d="M41.3425 43.4125C40.724 42.8761 39.9406 42.5674 39.1226 42.5377C38.3045 42.5081 37.5009 42.7593 36.8452 43.2495C34.8717 44.7604 32.5152 45.6887 30.0419 45.9296C27.5686 46.1705 25.0772 45.7143 22.8496 44.6126C20.6217 43.509 18.7452 41.8062 17.4307 39.6953C16.1164 37.5822 15.4179 35.1439 15.4138 32.6552C15.4098 30.1664 16.1003 27.7259 17.4077 25.6085C18.714 23.4926 20.5851 21.7839 22.8101 20.6747C25.034 19.5645 27.5242 19.0996 29.9987 19.3326C32.4732 19.5657 34.8329 20.4874 36.8106 21.9934C37.4587 22.4931 38.2588 22.7551 39.0769 22.7353C39.8949 22.7155 40.6814 22.4152 41.3047 21.8847C41.7078 21.539 42.0287 21.111 42.2426 20.6286C42.4566 20.1463 42.5652 19.6195 42.5553 19.0894C42.5454 18.5593 42.4138 18.0391 42.1768 17.5667C41.9398 17.0942 41.5976 16.6777 41.1812 16.355C38.1497 14.0334 34.5286 12.6077 30.7286 12.2395C26.9271 11.8699 23.0982 12.5743 19.6768 14.2726C16.2554 15.9709 13.3787 18.595 11.3733 21.8469C9.36497 25.099 8.30438 28.8477 8.31107 32.6705C8.31775 36.4932 9.39145 40.2381 11.4112 43.4833C13.4304 46.725 16.3165 49.3365 19.7427 51.0219C23.169 52.7073 26.9985 53.3995 30.7977 53.0199C34.5961 52.6389 38.212 51.2012 41.2355 48.8697C41.6465 48.5473 41.9806 48.1375 42.2137 47.67C42.4468 47.2025 42.573 46.689 42.5833 46.1666C42.5938 45.6444 42.488 45.1263 42.2737 44.65C42.0594 44.1736 41.7419 43.7509 41.3442 43.4125H41.3425Z" fill="#5A646E"/>
</svg>
