<svg width="99" height="39" viewBox="0 0 99 39" fill="none" xmlns="http://www.w3.org/2000/svg">
<g clip-path="url(#clip0_1318_506)">
<path opacity="0.54" d="M47.9571 17.8866C46.3302 17.8866 45.0078 19.1171 45.0078 20.8157C45.0078 22.5055 46.3302 23.7448 47.9571 23.7448C49.584 23.7448 50.9064 22.5055 50.9064 20.8157C50.9064 19.1258 49.584 17.8866 47.9571 17.8866ZM47.9571 22.5922C47.0697 22.5922 46.2954 21.8556 46.2954 20.8157C46.2954 19.7584 47.061 19.0392 47.9571 19.0392C48.8532 19.0392 49.6188 19.7584 49.6188 20.8157C49.6101 21.8556 48.8445 22.5922 47.9571 22.5922ZM55.8567 18.5452H55.8132C55.5261 18.1986 54.9693 17.8866 54.2646 17.8866C52.7943 17.8866 51.4458 19.1778 51.4458 20.8243C51.4458 22.4622 52.7943 23.7448 54.2646 23.7448C54.9693 23.7448 55.5261 23.4328 55.8132 23.0775H55.8567V23.5021C55.8567 24.62 55.2564 25.218 54.2907 25.218C53.499 25.218 53.0118 24.6547 52.8117 24.1781L51.6894 24.646C52.0113 25.426 52.8726 26.3792 54.2994 26.3792C55.8132 26.3792 57.0921 25.4953 57.0921 23.3288V18.0686H55.8654L55.8567 18.5452ZM54.3777 22.5922C53.4903 22.5922 52.7421 21.8469 52.7421 20.8243C52.7421 19.7931 53.4903 19.0392 54.3777 19.0392C55.2564 19.0392 55.9437 19.7931 55.9437 20.8243C55.9437 21.8556 55.2564 22.5922 54.3777 22.5922ZM41.5191 17.8866C39.8922 17.8866 38.5698 19.1171 38.5698 20.8157C38.5698 22.5055 39.8922 23.7448 41.5191 23.7448C43.146 23.7448 44.4684 22.5055 44.4684 20.8157C44.4684 19.1258 43.146 17.8866 41.5191 17.8866V17.8866ZM41.5191 22.5922C40.6317 22.5922 39.8574 21.8556 39.8574 20.8157C39.8574 19.7584 40.623 19.0392 41.5191 19.0392C42.4065 19.0392 43.1808 19.7584 43.1808 20.8157C43.1721 21.8556 42.4065 22.5922 41.5191 22.5922ZM33.8544 18.7792V20.0184H36.8385C36.7515 20.7203 36.5166 21.2316 36.1599 21.5869C35.7249 22.0202 35.0463 22.4969 33.8544 22.4969C32.0187 22.4969 30.5832 21.0237 30.5832 19.1951C30.5832 17.3666 32.0187 15.8934 33.8544 15.8934C34.8462 15.8934 35.5683 16.2834 36.1077 16.7773L36.9864 15.9021C36.2382 15.1915 35.2464 14.6455 33.8544 14.6455C31.3401 14.6455 29.2173 16.6907 29.2173 19.1951C29.2173 21.6996 31.3314 23.7448 33.8544 23.7448C35.2116 23.7448 36.2382 23.3028 37.0386 22.4709C37.8651 21.6476 38.1174 20.495 38.1174 19.5678C38.1174 19.2818 38.0913 19.0132 38.0478 18.7878L33.8544 18.7792ZM65.1744 19.7584C64.9308 19.0998 64.1826 17.8952 62.6601 17.8952C61.1463 17.8952 59.8848 19.0825 59.8848 20.8243C59.8848 22.4622 61.1289 23.7534 62.7993 23.7534C64.1478 23.7534 64.9308 22.9302 65.2527 22.4535L64.2522 21.7863C63.9216 22.2716 63.4605 22.5922 62.808 22.5922C62.1555 22.5922 61.6857 22.2889 61.3812 21.7083L65.3136 20.0877L65.1744 19.7584ZM61.1724 20.729C61.1376 19.5938 62.0511 19.0218 62.7123 19.0218C63.2256 19.0218 63.6606 19.2731 63.7998 19.6458L61.1724 20.729ZM57.9708 23.5715H59.2584V14.9661H57.9708V23.5715ZM71.2296 14.9661H68.1411V23.5715H69.4287V20.3131H71.2296C72.6564 20.3131 74.0658 19.2818 74.0658 17.6353C74.0658 15.9974 72.6564 14.9661 71.2296 14.9661ZM71.2644 19.0998H69.4287V16.1534H71.2644C72.2301 16.1534 72.7782 16.9507 72.7782 17.6266C72.7782 18.3025 72.2301 19.0998 71.2644 19.0998ZM74.7792 23.5715H76.0668V14.9661H74.7792V23.5715ZM79.2336 17.8692C78.3027 17.8692 77.3283 18.2765 76.9281 19.1865L78.0765 19.6631C78.3201 19.1865 78.7725 19.0305 79.251 19.0305C79.9209 19.0305 80.5995 19.4291 80.6082 20.1397V20.2264C80.3733 20.0964 79.8774 19.8971 79.2597 19.8971C78.0243 19.8971 76.7715 20.573 76.7715 21.8383C76.7715 22.9908 77.7807 23.7274 78.9204 23.7274C79.7904 23.7274 80.2689 23.3375 80.5647 22.8868H80.6082V23.5541H81.8523V20.2524C81.861 18.7272 80.7126 17.8692 79.2336 17.8692V17.8692ZM79.077 22.5922C78.6507 22.5922 78.0678 22.3842 78.0678 21.8643C78.0678 21.197 78.7986 20.9457 79.4337 20.9457C79.9992 20.9457 80.2689 21.067 80.6082 21.2316C80.5125 22.0289 79.8252 22.5922 79.077 22.5922ZM86.3937 18.0599L84.9147 21.7949H84.8712L83.34 18.0599H81.948L84.2448 23.2768L82.9311 26.1886H84.2796L87.8292 18.0686H86.3937V18.0599Z" fill="white"/>
<path d="M11.5824 12.0196C11.4084 12.2016 11.304 12.4876 11.304 12.8516V25.9632C11.304 26.3272 11.4084 26.6131 11.5824 26.7951L11.6259 26.8384L19.0035 19.4897V19.3164L11.6259 11.9677L11.5824 12.0196Z" fill="url(#paint0_linear_1318_506)"/>
<path d="M21.4568 21.9423L19.0034 19.4898V19.3165L21.4655 16.864L21.5177 16.8987L24.4322 18.5452C25.2674 19.0132 25.2674 19.7844 24.4322 20.2611L21.5177 21.9076L21.4568 21.9423Z" fill="url(#paint1_linear_1318_506)"/>
<path d="M21.5177 21.9075L19.0034 19.4031L11.5823 26.7951C11.852 27.0811 12.3131 27.1244 12.8177 26.8298L21.5177 21.9075Z" fill="url(#paint2_linear_1318_506)"/>
<path d="M21.5177 16.9073L12.8177 11.985C12.3044 11.6991 11.852 11.7337 11.5823 12.0197L19.0034 19.4118L21.5177 16.9073Z" fill="url(#paint3_linear_1318_506)"/>
<path opacity="0.2" d="M21.4568 21.8556L12.8177 26.7432C12.3305 27.0205 11.9042 27.0032 11.6258 26.7519L11.5823 26.7952L11.6258 26.8385C11.9042 27.0898 12.3392 27.1072 12.8177 26.8299L21.5177 21.9076L21.4568 21.8556Z" fill="black"/>
<path opacity="0.12" d="M11.5824 26.7085C11.4084 26.5265 11.304 26.2405 11.304 25.8766V25.9632C11.304 26.3272 11.4084 26.6132 11.5824 26.7951L11.6259 26.7518L11.5824 26.7085ZM24.4236 20.1743L21.4569 21.8555L21.5091 21.9075L24.4236 20.261C24.8412 20.027 25.05 19.7151 25.05 19.4031C25.0152 19.6891 24.8064 19.9577 24.4236 20.1743Z" fill="black"/>
<path opacity="0.25" d="M12.8178 12.0631L24.4236 18.6319C24.7977 18.8485 25.0152 19.1172 25.05 19.4031C25.05 19.0912 24.8412 18.7792 24.4236 18.5452L12.8178 11.9764C11.9826 11.5084 11.304 11.8984 11.304 12.843V12.9297C11.304 11.9851 11.9826 11.5951 12.8178 12.0631Z" fill="white"/>
</g>
<defs>
<linearGradient id="paint0_linear_1318_506" x1="18.3419" y1="12.7089" x2="8.39025" y2="22.6997" gradientUnits="userSpaceOnUse">
<stop stop-color="#FF560E"/>
<stop offset="0.007" stop-color="#00A1FF"/>
<stop offset="0.26" stop-color="#00BEFF"/>
<stop offset="0.512" stop-color="#00D2FF"/>
<stop offset="0.76" stop-color="#00DFFF"/>
<stop offset="1" stop-color="#00E3FF"/>
</linearGradient>
<linearGradient id="paint1_linear_1318_506" x1="25.5091" y1="19.4075" x2="11.1044" y2="19.4075" gradientUnits="userSpaceOnUse">
<stop stop-color="#FFE000"/>
<stop offset="0.409" stop-color="#FFBD00"/>
<stop offset="0.775" stop-color="#FFA500"/>
<stop offset="1" stop-color="#FF9C00"/>
</linearGradient>
<linearGradient id="paint2_linear_1318_506" x1="20.1491" y1="20.7707" x2="6.65394" y2="34.3188" gradientUnits="userSpaceOnUse">
<stop stop-color="#FF560E"/>
<stop offset="1" stop-color="#C31162"/>
</linearGradient>
<linearGradient id="paint3_linear_1318_506" x1="9.71352" y1="7.64946" x2="15.7397" y2="13.6993" gradientUnits="userSpaceOnUse">
<stop stop-color="#FF560E" stop-opacity="0.39"/>
<stop offset="0.069" stop-color="#FF560E"/>
<stop offset="0.476" stop-color="#FFE70B"/>
<stop offset="0.801" stop-color="#FF560E"/>
<stop offset="1" stop-color="#FF560E"/>
</linearGradient>
<clipPath id="clip0_1318_506">
<rect width="98.832" height="38.8235" fill="white" transform="translate(0.167969)"/>
</clipPath>
</defs>
</svg>
