<svg width="74" height="20" viewBox="0 0 249 66" fill="none" xmlns="http://www.w3.org/2000/svg">
<path d="M93.1248 16.2618H79.3508C78.8948 16.2616 78.4537 16.4236 78.107 16.7187C77.7602 17.0138 77.5306 17.4226 77.4596 17.8714L71.8888 53.0669C71.8632 53.2302 71.8734 53.3971 71.9187 53.5561C71.964 53.7152 72.0434 53.8625 72.1514 53.988C72.2593 54.1135 72.3933 54.2142 72.5441 54.2832C72.6948 54.3521 72.8588 54.3877 73.0247 54.3875H79.6005C80.0568 54.3877 80.4982 54.2254 80.845 53.9299C81.1917 53.6344 81.4211 53.2251 81.4917 52.7759L82.9942 43.2831C83.0648 42.8343 83.2938 42.4253 83.6402 42.1298C83.9866 41.8343 84.4274 41.6718 84.8834 41.6716H89.2438C98.3171 41.6716 103.554 37.2965 104.921 28.6265C105.537 24.8334 104.947 21.8531 103.165 19.7659C101.207 17.474 97.735 16.2618 93.1248 16.2618V16.2618ZM94.7139 29.1162C93.9607 34.0412 90.1843 34.0412 86.5329 34.0412H84.4544L85.9126 24.8435C85.9552 24.5744 86.0929 24.3293 86.3008 24.1523C86.5086 23.9754 86.7731 23.8781 87.0465 23.8781H87.9991C90.4865 23.8781 92.8328 23.8781 94.0453 25.291C94.7683 26.1339 94.9899 27.3862 94.7139 29.1162V29.1162ZM134.298 28.9577H127.702C127.429 28.9577 127.164 29.0549 126.956 29.2319C126.748 29.4088 126.611 29.6539 126.568 29.923L126.276 31.7614L125.815 31.0951C124.387 29.0299 121.203 28.3395 118.024 28.3395C110.736 28.3395 104.51 33.8405 103.298 41.5572C102.667 45.4065 103.564 49.0872 105.755 51.654C107.765 54.0142 110.641 54.9976 114.063 54.9976C119.936 54.9976 123.193 51.2346 123.193 51.2346L122.898 53.0609C122.872 53.2242 122.882 53.3912 122.927 53.5504C122.972 53.7096 123.05 53.8573 123.158 53.9832C123.266 54.1091 123.399 54.2102 123.55 54.2797C123.7 54.3491 123.864 54.3852 124.03 54.3855H129.972C130.428 54.3857 130.869 54.2234 131.216 53.9279C131.563 53.6324 131.792 53.2231 131.863 52.7739L135.428 30.2782C135.454 30.1153 135.445 29.9487 135.4 29.7898C135.355 29.6309 135.276 29.4836 135.169 29.358C135.061 29.2325 134.928 29.1316 134.778 29.0625C134.627 28.9934 134.464 28.9576 134.298 28.9577V28.9577ZM125.104 41.7498C124.467 45.5048 121.477 48.0255 117.662 48.0255C115.747 48.0255 114.216 47.4134 113.233 46.2534C112.258 45.1014 111.888 43.4617 112.198 41.6354C112.792 37.9126 115.833 35.3096 119.589 35.3096C121.462 35.3096 122.985 35.9297 123.988 37.0998C124.993 38.2819 125.392 39.9316 125.104 41.7498V41.7498ZM169.427 28.9577H162.799C162.486 28.9582 162.178 29.0346 161.902 29.1805C161.626 29.3263 161.39 29.5371 161.214 29.7946L152.072 43.2129L148.197 30.3184C148.078 29.9251 147.835 29.5804 147.504 29.3354C147.173 29.0903 146.772 28.9579 146.36 28.9577H139.847C139.664 28.9572 139.484 29.0002 139.321 29.0832C139.158 29.1662 139.017 29.2867 138.911 29.4347C138.804 29.5828 138.735 29.754 138.708 29.9342C138.681 30.1145 138.698 30.2985 138.757 30.4709L146.058 51.8206L139.194 61.4759C139.072 61.6471 139 61.8485 138.985 62.0579C138.97 62.2673 139.014 62.4768 139.11 62.6633C139.207 62.8498 139.353 63.0063 139.533 63.1154C139.713 63.2246 139.92 63.2823 140.131 63.2822H146.751C147.06 63.2826 147.364 63.2083 147.638 63.0657C147.912 62.9231 148.148 62.7164 148.324 62.4633L170.37 30.7539C170.489 30.5823 170.559 30.3814 170.572 30.173C170.585 29.9646 170.541 29.7566 170.444 29.5715C170.347 29.3865 170.2 29.2315 170.021 29.1232C169.842 29.015 169.636 28.9578 169.427 28.9577V28.9577Z" fill="#9E9E9E"/>
<path d="M191.372 16.2618H177.596C177.141 16.262 176.7 16.4242 176.354 16.7192C176.007 17.0143 175.778 17.4228 175.707 17.8713L170.136 53.0668C170.11 53.2299 170.12 53.3966 170.165 53.5554C170.21 53.7143 170.289 53.8616 170.397 53.9871C170.504 54.1126 170.638 54.2134 170.788 54.2825C170.939 54.3516 171.102 54.3874 171.268 54.3874H178.337C178.656 54.3869 178.965 54.2731 179.207 54.0663C179.449 53.8596 179.609 53.5735 179.659 53.2595L181.24 43.2831C181.31 42.8342 181.539 42.4252 181.886 42.1297C182.232 41.8343 182.673 41.6718 183.129 41.6715H187.487C196.562 41.6715 201.797 37.2964 203.167 28.6265C203.785 24.8334 203.191 21.8531 201.408 19.7659C199.453 17.474 195.982 16.2618 191.372 16.2618V16.2618ZM192.961 29.1162C192.21 34.0412 188.434 34.0412 184.78 34.0412H182.704L184.164 24.8434C184.206 24.5743 184.343 24.329 184.551 24.152C184.758 23.9749 185.023 23.8777 185.296 23.8781H186.249C188.734 23.8781 191.082 23.8781 192.295 25.2909C193.018 26.1339 193.237 27.3862 192.961 29.1162V29.1162ZM232.543 28.9576H225.951C225.678 28.9569 225.413 29.0539 225.206 29.231C224.998 29.4081 224.861 29.6537 224.819 29.9229L224.527 31.7613L224.064 31.095C222.636 29.0299 219.454 28.3395 216.276 28.3395C208.987 28.3395 202.764 33.8405 201.551 41.5571C200.923 45.4064 201.815 49.0871 204.006 51.654C206.02 54.0141 208.892 54.9975 212.314 54.9975C218.187 54.9975 221.444 51.2345 221.444 51.2345L221.15 53.0608C221.124 53.2244 221.133 53.3918 221.178 53.5513C221.223 53.7108 221.303 53.8586 221.411 53.9846C221.519 54.1106 221.653 54.2117 221.804 54.2809C221.955 54.3501 222.12 54.3857 222.286 54.3854H228.225C228.681 54.3851 229.122 54.2226 229.468 53.9272C229.815 53.6317 230.044 53.2227 230.114 52.7738L233.681 30.2782C233.707 30.1147 233.696 29.9478 233.65 29.7888C233.605 29.6298 233.525 29.4825 233.417 29.357C233.309 29.2316 233.175 29.1309 233.024 29.062C232.873 28.993 232.709 28.9574 232.543 28.9576V28.9576ZM223.349 41.7498C222.717 45.5047 219.722 48.0254 215.907 48.0254C213.996 48.0254 212.461 47.4133 211.478 46.2533C210.504 45.1013 210.137 43.4617 210.443 41.6354C211.041 37.9125 214.079 35.3095 217.835 35.3095C219.708 35.3095 221.23 35.9297 222.233 37.0997C223.243 38.2818 223.641 39.9315 223.349 41.7498V41.7498ZM240.32 17.2271L234.666 53.0668C234.64 53.2299 234.65 53.3966 234.695 53.5554C234.74 53.7143 234.819 53.8616 234.927 53.9871C235.034 54.1126 235.168 54.2134 235.318 54.2825C235.469 54.3516 235.632 54.3874 235.798 54.3874H241.482C242.426 54.3874 243.228 53.705 243.373 52.7758L248.948 17.5823C248.974 17.4192 248.964 17.2524 248.919 17.0934C248.874 16.9345 248.795 16.7871 248.687 16.6614C248.58 16.5357 248.446 16.4348 248.296 16.3654C248.145 16.2961 247.982 16.2601 247.816 16.2598H241.451C241.178 16.2607 240.914 16.3586 240.707 16.5359C240.499 16.7131 240.362 16.9582 240.32 17.2271V17.2271Z" fill="#EEEEEE"/>
<path d="M14.6881 61.227L15.7414 54.56L13.395 54.5058H2.19092L9.97721 5.30996C10.0004 5.15964 10.077 5.02263 10.1931 4.92391C10.3092 4.82518 10.457 4.7713 10.6096 4.7721H29.5014C35.7731 4.7721 40.1013 6.07259 42.361 8.63946C43.4204 9.84361 44.0951 11.102 44.4214 12.4867C44.7638 13.9398 44.7698 15.6757 44.4355 17.7931L44.4113 17.9476V19.3043L45.4707 19.9023C46.2795 20.3106 47.0064 20.8629 47.6157 21.532C48.522 22.5615 49.1081 23.87 49.3558 25.4214C49.6116 27.0169 49.527 28.9155 49.1081 31.0649C48.6247 33.5374 47.8433 35.6909 46.7879 37.4529C45.8567 39.0315 44.6048 40.3987 43.1123 41.4668C41.7105 42.4582 40.0449 43.2108 38.1617 43.6925C36.337 44.1661 34.2565 44.4049 31.9746 44.4049H30.5044C29.453 44.4049 28.4319 44.7822 27.6303 45.4586C26.8299 46.1421 26.2989 47.0866 26.1319 48.1238L26.0211 48.7238L24.1601 60.4744L24.0755 60.9059C24.0534 61.0424 24.0151 61.1106 23.9587 61.1568C23.9041 61.2013 23.8359 61.226 23.7654 61.227H14.6881Z" fill="#9E9E9E"/>
<path d="M46.4737 18.1041C46.4173 18.4634 46.3528 18.8306 46.2803 19.2079C43.7889 31.9539 35.2655 36.3571 24.3796 36.3571H18.8369C17.5057 36.3571 16.3838 37.3205 16.1764 38.629L13.3386 56.5629L12.535 61.6465C12.503 61.8481 12.5152 62.0543 12.5708 62.2508C12.6264 62.4472 12.7241 62.6294 12.8572 62.7846C12.9902 62.9399 13.1554 63.0646 13.3414 63.1501C13.5275 63.2357 13.7299 63.28 13.9348 63.2801H23.7653C24.9294 63.2801 25.9183 62.4372 26.1016 61.2932L26.1983 60.7955L28.0492 49.0911L28.168 48.4489C28.3493 47.3009 29.3402 46.458 30.5043 46.458H31.9746C41.499 46.458 48.955 42.6047 51.1342 31.4542C52.0445 26.7961 51.5732 22.9067 49.1644 20.1713C48.401 19.3251 47.4891 18.6246 46.4737 18.1041V18.1041Z" fill="#EEEEEE"/>
<path d="M43.8674 17.0685C43.0719 16.8392 42.2626 16.6603 41.4445 16.5327C39.8278 16.2851 38.194 16.1663 36.5584 16.1775H21.7511C21.1876 16.177 20.6425 16.3775 20.2144 16.7426C19.7863 17.1078 19.5034 17.6135 19.4169 18.1683L16.2669 38.049L16.1763 38.629C16.2744 37.9961 16.5966 37.4191 17.0846 37.0024C17.5726 36.5857 18.1942 36.3568 18.8368 36.3571H24.3795C35.2654 36.3571 43.7888 31.9519 46.2802 19.2079C46.3547 18.8306 46.4171 18.4634 46.4735 18.1041C45.8161 17.7606 45.131 17.4726 44.4253 17.2432C44.2402 17.182 44.0543 17.1238 43.8674 17.0685V17.0685Z" fill="#FFFFFF"/>
<path d="M19.417 18.1684C19.5028 17.6134 19.7856 17.1074 20.2139 16.7425C20.6423 16.3775 21.1878 16.1778 21.7513 16.1795H36.5586C38.3128 16.1795 39.9502 16.2939 41.4446 16.5347C42.4559 16.6931 43.4532 16.93 44.4274 17.2432C45.1626 17.486 45.8453 17.773 46.4757 18.1042C47.2169 13.3939 46.4697 10.1868 43.9139 7.2828C41.0962 4.08577 36.0107 2.71704 29.5034 2.71704H10.6116C9.28237 2.71704 8.14846 3.68037 7.94303 4.99089L0.0741578 54.6925C0.0375059 54.9232 0.0514507 55.1592 0.115033 55.384C0.178615 55.6089 0.290326 55.8174 0.442481 55.9951C0.594636 56.1729 0.783624 56.3157 0.996445 56.4137C1.20927 56.5117 1.44087 56.5626 1.67532 56.5629H13.3387L16.2671 38.049L19.417 18.1684Z" fill="#9E9E9E"/>
</svg>
